<?xml version="1.0" standalone="no"?><!DOCTYPE svg PUBLIC "-//W3C//DTD SVG 1.1//EN" "http://www.w3.org/Graphics/SVG/1.1/DTD/svg11.dtd"><svg t="1778536719630" class="icon" viewBox="0 0 1024 1024" version="1.1" xmlns="http://www.w3.org/2000/svg" p-id="14493" xmlns:xlink="http://www.w3.org/1999/xlink" width="200" height="200"><path d="M513.38666667 111.57333333L471.46666667 73.92c-10.24-12.58666667-23.57333333-13.22666667-39.78666667-2.13333333L288.32 214.61333333c-12.90666667 13.97333333-12.48 29.54666667 1.06666667 46.4l122.56 120.74666667 1.06666666-193.70666667 206.29333334 0.96v192.74666667l119.25333333-120.85333333c11.84-13.97333333 11.84-29.33333333 0-46.4L605.01333333 73.92c-16.96-12.90666667-32.32-13.97333333-46.4-3.30666667zM113.17333333 513.28L75.73333333 555.30666667c-12.26666667 10.34666667-13.12 23.68-2.02666666 39.89333333l142.08 143.36c14.08 12.8 29.44 12.48 46.29333333-1.17333333l119.68-123.09333334-192.53333333-0.53333333 0.74666666-206.93333333 205.33333334-0.32-134.18666667-119.14666667q-20.8-17.38666667-46.18666667 0L75.52 421.65333333c-12.8 16.96-13.97333333 32.42666667-3.2 46.4zM517.44 906.02666667l41.81333333 37.54666666q15.36 18.66666667 39.57333334 2.02666667l142.08-143.14666667c12.69333333-14.08 12.37333333-29.65333333-1.28-46.61333333L617.49333333 635.62666667l-0.42666666 193.70666666-205.12-0.42666666-0.64-192.64L293.33333333 757.33333333c-11.73333333 14.18666667-11.62666667 29.65333333 0.10666667 46.50666667l133.12 140.05333333c16.96 13.01333333 32.21333333 13.97333333 46.18666667 3.2zM908.05333333 502.93333333l36.8-42.56c12.26666667-10.56 12.90666667-23.78666667 1.70666667-40l-144.21333333-141.86666666c-14.18666667-12.69333333-29.54666667-12.05333333-46.4 1.81333333l-118.4 124.69333333 193.06666666-1.70666666 1.70666667 207.14666666-191.68 2.77333334 121.70666667 117.86666666c14.18666667 11.62666667 29.65333333 11.30666667 46.4-0.74666666l138.02666666-135.89333334c12.58666667-17.28 13.54666667-32.74666667 2.66666667-46.61333333z" fill="#d81e06" p-id="14494"></path></svg>